<mxfile host="app.diagrams.net" modified="2024-03-12T23:12:01.861Z" agent="Mozilla/5.0 (Windows NT 10.0; Win64; x64; rv:68.0) Gecko/20100101 Firefox/68.0" version="24.0.5" etag="oAglsciCy_TlM6n1m1HE" type="github">
  <diagram name="Page-1" id="xUbH7uRezfIE24XPQjJ2">
    <mxGraphModel>
      <root>
        <mxCell id="0" />
        <mxCell id="1" parent="0" />
      </root>
    </mxGraphModel>
  </diagram>
</mxfile>
